{"title":"Alina Li - Swallow Me Whole","uid":11146316,"size":394006506,"categoryP":"porn","categoryS":"movies","magnet":"?xt=urn:btih:8deed36c018b5e5776ef83f779f5fa2545a52ac2&amp;dn=Alina+Li+-+Swallow+Me+Whole&amp;tr=udp%3A%2F%2Ftracker.openbittorrent.com%3A80&amp;tr=udp%3A%2F%2Fopen.demonii.com%3A1337&amp;tr=udp%3A%2F%2Ftracker.coppersurfer.tk%3A6969&amp;tr=udp%3A%2F%2Fexodus.desync.com%3A6969","seeders":3,"leechers":7,"uploader":"DavidL0ng","files":-1,"time":1412266002,"description":"screens;\n &lt;a href=&quot;\nhttp://bayimg.com/IAACbaagM&quot; rel=&quot;nofollow&quot; target=&quot;_NEW&quot;&gt;\nhttp://bayimg.com/IAACbaagM&lt;/a&gt;\n\nVideo\nID                                       : 0\nFormat                                   : MPEG-4 Visual\nFormat profile                           : Simple@L1\nFormat settings, BVOP                    : No\nFormat settings, QPel                    : No\nFormat settings, GMC                     : No warppoints\nFormat settings, Matrix                  : Default (H.263)\nCodec ID                                 : DX50\nCodec ID/Hint                            : DivX 5\nDuration                                 : 20mn 8s\nBit rate                                 : 2 341 Kbps\nWidth                                    : 720 pixels\nHeight                                   : 400 pixels\nDisplay aspect ratio                     : 16:9\nFrame rate                               : 23.976 fps\nColor space                              : YUV\nChroma subsampling                       : 4:2:0\nBit depth                                : 8 bits\nScan type                                : Interlaced\nScan order                               : Top Field First\nCompression mode                         : Lossy\nBits/(Pixel*Frame)                       : 0.339\nStream size                              : 337 MiB (90%)\nWriting library                          : Lavc52.72.2\n\nAudio\nID                                       : 1\nFormat                                   : MPEG Audio\nFormat version                           : Version 1\nFormat profile                           : Layer 3\nMode                                     : Joint stereo\nMode extension                           : MS Stereo\nCodec ID                                 : 55\nCodec ID/Hint                            : MP3\nDuration                                 : 20mn 8s\nBit rate mode                            : Constant\nBit rate                                 : 256 Kbps\nChannel(s)                               : 2 channels\nSampling rate                            : 44.1 KHz\nCompression mode                         : Lossy\nStream size                              : 36.9 MiB (10%)\nAlignment                                : Aligned on interleaves\nInterleave, duration                     : 26 ms (0.63 video frame)\nInterleave, preload duration             : 809 ms\nWriting library                          : LAME","torrent":{"xt":"urn:btih:8deed36c018b5e5776ef83f779f5fa2545a52ac2","amp;dn":"Alina+Li+-+Swallow+Me+Whole","amp;tr":["udp%3A%2F%2Ftracker.openbittorrent.com%3A80","udp%3A%2F%2Fopen.demonii.com%3A1337","udp%3A%2F%2Ftracker.coppersurfer.tk%3A6969","udp%3A%2F%2Fexodus.desync.com%3A6969"],"infoHash":"8deed36c018b5e5776ef83f779f5fa2545a52ac2","infoHashBuffer":{"type":"Buffer","data":[141,238,211,108,1,139,94,87,118,239,131,247,121,245,250,37,69,165,42,194]},"announce":[],"urlList":[]}}